<svg width="1401" height="378" viewBox="0 0 1401 378" fill="none" xmlns="http://www.w3.org/2000/svg">
<g filter="url(#filter0_i_1196_9344)">
<rect width="378" height="378" rx="72" fill="#006884"/>
</g>
<g filter="url(#filter1_f_1196_9344)">
<path d="M35.5373 53.5146C37.5543 38.3565 66.9837 39.9502 79.7084 41.3635C81.7557 41.5909 82.3756 44.2624 80.7287 45.4998C74.2822 50.3434 63.2772 59.7695 60.5187 69.4435C46.9902 116.888 49.8313 197.136 52.1647 235.029C53.015 248.838 50.7604 262.68 45.1508 275.326L35.5373 297C35.5373 297 26.4534 121.782 35.5373 53.5146Z" fill="white" fill-opacity="0.2"/>
</g>
<g filter="url(#filter2_f_1196_9344)">
<path d="M99 40.5L315 40.5" stroke="white" stroke-opacity="0.8" stroke-width="2.25" stroke-linecap="round"/>
</g>
<g clip-path="url(#clip0_1196_9344)">
<path d="M234.496 225.077C267.527 213.545 289.296 185.584 289.296 150.039C289.296 102.647 250.674 68.8799 198.333 68.8799H181.758V116.272H192.861C218.516 116.272 236.082 129.582 236.082 150.197C236.082 170.813 218.516 184.123 192.861 184.123H141.472V115.956C141.472 103.387 136.458 91.3327 127.535 82.4449C118.611 73.5571 106.508 68.564 93.8886 68.564H89.6854V308.883C103.357 308.883 116.468 303.474 126.135 293.845C135.803 284.217 141.234 271.158 141.234 257.541V230.962H179.498L234.615 308.962H293.618L234.496 225.077Z" fill="#FEFEFE"/>
<mask id="mask0_1196_9344" style="mask-type:luminance" maskUnits="userSpaceOnUse" x="89" y="68" width="205" height="241">
<path d="M234.496 225.077C267.527 213.545 289.296 185.584 289.296 150.039C289.296 102.647 250.674 68.8799 198.333 68.8799H181.758V116.272H192.861C218.516 116.272 236.082 129.582 236.082 150.197C236.082 170.813 218.516 184.123 192.861 184.123H141.472V115.956C141.472 103.387 136.458 91.3327 127.535 82.4449C118.611 73.5571 106.508 68.564 93.8886 68.564H89.6854V308.883C103.357 308.883 116.468 303.474 126.135 293.845C135.803 284.217 141.234 271.158 141.234 257.541V230.962H179.498L234.615 308.962H293.618L234.496 225.077Z" fill="white"/>
</mask>
<g mask="url(#mask0_1196_9344)">
<path d="M32.348 261.412C35.4409 260.385 57.9238 187.756 141.472 183.807C174.78 182.227 200.712 186.769 218.239 178.199C260.588 157.583 285.648 106.833 289.97 60.1519L311.739 321.166H40.5957L32.348 261.412Z" fill="#FEFEFE"/>
</g>
</g>
<path d="M566.778 208L518.912 150.92H561.384L600.936 197.887V208H566.778ZM439.584 208V46.424H568.8C574.793 46.424 580.186 47.9222 584.98 50.9185C589.924 53.765 593.894 57.6602 596.891 62.6041C599.887 67.548 601.385 72.9414 601.385 78.7842V121.482C601.385 127.324 599.887 132.718 596.891 137.662C593.894 142.456 589.924 146.351 584.98 149.347C580.186 152.194 574.793 153.617 568.8 153.617L471.945 153.842V208H439.584ZM473.293 121.032H567.227C567.677 121.032 567.976 120.957 568.126 120.807C568.426 120.508 568.576 120.208 568.576 119.909V80.1325C568.576 79.6831 568.426 79.3834 568.126 79.2336C567.976 78.934 567.677 78.7842 567.227 78.7842H473.293C472.844 78.7842 472.469 78.934 472.169 79.2336C472.02 79.3834 471.945 79.6831 471.945 80.1325V119.909C471.945 120.208 472.02 120.508 472.169 120.807C472.469 120.957 472.844 121.032 473.293 121.032ZM655.587 208C649.894 208 644.651 206.577 639.857 203.73C635.063 200.734 631.167 196.839 628.171 192.045C625.325 187.251 623.901 182.007 623.901 176.314V109.347C623.901 103.654 625.325 98.41 628.171 93.6159C631.167 88.8218 635.063 85.0015 639.857 82.155C644.651 79.1587 649.894 77.6605 655.587 77.6605H724.353C730.195 77.6605 735.514 79.1587 740.308 82.155C745.102 85.0015 748.922 88.8218 751.769 93.6159C754.615 98.41 756.039 103.654 756.039 109.347V159.01H655.812V174.741C655.812 175.041 655.962 175.34 656.262 175.64C656.561 175.939 656.861 176.089 657.16 176.089H756.039V208H655.587ZM655.812 130.47H724.128V110.92C724.128 110.62 723.978 110.32 723.679 110.021C723.379 109.721 723.079 109.571 722.78 109.571H657.16C656.861 109.571 656.561 109.721 656.262 110.021C655.962 110.32 655.812 110.62 655.812 110.92V130.47ZM780.17 208V77.6605H939.274C945.267 77.6605 950.66 79.1587 955.454 82.155C960.248 85.0015 964.069 88.8218 966.915 93.6159C969.762 98.41 971.185 103.654 971.185 109.347V208H939.274V110.92C939.274 110.62 939.124 110.32 938.825 110.021C938.675 109.721 938.375 109.571 937.926 109.571H893.206C892.756 109.571 892.382 109.721 892.082 110.021C891.932 110.32 891.857 110.62 891.857 110.92V208H859.722V110.92C859.722 110.62 859.572 110.32 859.273 110.021C858.973 109.721 858.673 109.571 858.374 109.571H813.429C813.129 109.571 812.83 109.721 812.53 110.021C812.38 110.32 812.305 110.62 812.305 110.92V208H780.17ZM1030.86 208C1025.16 208 1019.92 206.577 1015.13 203.73C1010.33 200.734 1006.44 196.839 1003.44 192.045C1000.59 187.251 999.172 182.007 999.172 176.314V109.347C999.172 103.654 1000.59 98.41 1003.44 93.6159C1006.44 88.8218 1010.33 85.0015 1015.13 82.155C1019.92 79.1587 1025.16 77.6605 1030.86 77.6605H1099.62C1105.47 77.6605 1110.78 79.1587 1115.58 82.155C1120.37 85.0015 1124.19 88.8218 1127.04 93.6159C1129.89 98.41 1131.31 103.654 1131.31 109.347V176.314C1131.31 182.007 1129.89 187.251 1127.04 192.045C1124.19 196.839 1120.37 200.734 1115.58 203.73C1110.78 206.577 1105.47 208 1099.62 208H1030.86ZM1032.43 176.089H1098.05C1098.35 176.089 1098.65 175.939 1098.95 175.64C1099.25 175.34 1099.4 175.041 1099.4 174.741V110.92C1099.4 110.62 1099.25 110.32 1098.95 110.021C1098.65 109.721 1098.35 109.571 1098.05 109.571H1032.43C1032.13 109.571 1031.83 109.721 1031.53 110.021C1031.23 110.32 1031.08 110.62 1031.08 110.92V174.741C1031.08 175.041 1031.23 175.34 1031.53 175.64C1031.83 175.939 1032.13 176.089 1032.43 176.089ZM1183.18 208C1177.33 208 1172.01 206.577 1167.22 203.73C1162.43 200.734 1158.53 196.839 1155.53 192.045C1152.69 187.251 1151.27 182.007 1151.27 176.314V38.334H1183.18V77.6605H1232.84V109.571H1183.18V174.741C1183.18 175.041 1183.33 175.34 1183.63 175.64C1183.93 175.939 1184.22 176.089 1184.52 176.089H1232.84V208H1183.18ZM1282.57 208C1276.88 208 1271.64 206.577 1266.84 203.73C1262.05 200.734 1258.15 196.839 1255.16 192.045C1252.31 187.251 1250.89 182.007 1250.89 176.314V109.347C1250.89 103.654 1252.31 98.41 1255.16 93.6159C1258.15 88.8218 1262.05 85.0015 1266.84 82.155C1271.64 79.1587 1276.88 77.6605 1282.57 77.6605H1351.34C1357.18 77.6605 1362.5 79.1587 1367.29 82.155C1372.09 85.0015 1375.91 88.8218 1378.76 93.6159C1381.6 98.41 1383.03 103.654 1383.03 109.347V159.01H1282.8V174.741C1282.8 175.041 1282.95 175.34 1283.25 175.64C1283.55 175.939 1283.85 176.089 1284.15 176.089H1383.03V208H1282.57ZM1282.8 130.47H1351.11V110.92C1351.11 110.62 1350.96 110.32 1350.66 110.021C1350.37 109.721 1350.07 109.571 1349.77 109.571H1284.15C1283.85 109.571 1283.55 109.721 1283.25 110.021C1282.95 110.32 1282.8 110.62 1282.8 110.92V130.47Z" fill="#006884"/>
<path d="M484.109 294.385C493.37 296.443 498.927 302.514 498.927 312.29C498.927 324.535 489.872 331.532 471.864 331.532H438.731V259.502H469.806C485.859 259.502 495.12 266.293 495.12 278.024C495.12 286.256 490.695 291.71 484.109 294.385ZM469.292 265.779H446.345V291.915H469.292C480.816 291.915 487.505 287.491 487.505 278.847C487.505 270.204 480.816 265.779 469.292 265.779ZM471.761 325.255C484.418 325.255 491.312 321.139 491.312 311.672C491.312 302.308 484.418 298.192 471.761 298.192H446.345V325.255H471.761ZM561.377 277.407H568.683V331.532H561.686V321.653C557.879 328.239 550.881 332.046 542.238 332.046C528.449 332.046 519.394 324.329 519.394 308.791V277.407H526.7V308.071C526.7 319.595 532.668 325.461 542.958 325.461C554.277 325.461 561.377 318.155 561.377 305.807V277.407ZM597.994 265.573C595.01 265.573 592.643 263.206 592.643 260.325C592.643 257.547 595.01 255.18 597.994 255.18C600.978 255.18 603.345 257.444 603.345 260.222C603.345 263.206 601.081 265.573 597.994 265.573ZM594.29 331.532V277.407H601.596V331.532H594.29ZM641.578 332.046C632.625 332.046 623.982 329.165 619.557 325.358L622.85 319.595C627.172 322.991 634.478 325.666 642.092 325.666C652.382 325.666 656.601 322.168 656.601 316.817C656.601 302.72 621.512 313.833 621.512 292.43C621.512 283.581 629.127 276.995 642.915 276.995C649.913 276.995 657.527 278.95 662.055 282.037L658.865 287.902C654.131 284.61 648.472 283.272 642.915 283.272C633.14 283.272 628.818 287.079 628.818 292.224C628.818 306.836 663.907 295.826 663.907 316.611C663.907 325.975 655.675 332.046 641.578 332.046ZM710.135 276.995C723.307 276.995 732.362 284.61 732.362 300.147V331.532H725.056V300.868C725.056 289.446 719.088 283.581 708.798 283.581C697.17 283.581 689.864 290.784 689.864 303.131V331.532H682.558V277.407H689.555V287.388C693.466 280.802 700.772 276.995 710.135 276.995ZM804.773 304.469C804.773 305.087 804.67 305.91 804.67 306.733H759.395C760.218 318.052 768.861 325.564 780.695 325.564C787.28 325.564 793.146 323.197 797.262 318.463L801.378 323.197C796.541 328.959 789.03 332.046 780.489 332.046C763.613 332.046 752.089 320.521 752.089 304.469C752.089 288.417 763.305 276.995 778.534 276.995C793.763 276.995 804.773 288.211 804.773 304.469ZM778.534 283.272C768.038 283.272 760.321 290.681 759.395 301.279H797.776C796.85 290.681 789.133 283.272 778.534 283.272ZM839.298 332.046C830.345 332.046 821.702 329.165 817.277 325.358L820.57 319.595C824.892 322.991 832.198 325.666 839.812 325.666C850.102 325.666 854.321 322.168 854.321 316.817C854.321 302.72 819.232 313.833 819.232 292.43C819.232 283.581 826.847 276.995 840.635 276.995C847.633 276.995 855.247 278.95 859.775 282.037L856.585 287.902C851.851 284.61 846.192 283.272 840.635 283.272C830.86 283.272 826.538 287.079 826.538 292.224C826.538 306.836 861.627 295.826 861.627 316.611C861.627 325.975 853.395 332.046 839.298 332.046ZM894.787 332.046C885.835 332.046 877.191 329.165 872.767 325.358L876.059 319.595C880.381 322.991 887.687 325.666 895.302 325.666C905.591 325.666 909.81 322.168 909.81 316.817C909.81 302.72 874.722 313.833 874.722 292.43C874.722 283.581 882.336 276.995 896.125 276.995C903.122 276.995 910.736 278.95 915.264 282.037L912.074 287.902C907.341 284.61 901.681 283.272 896.125 283.272C886.349 283.272 882.027 287.079 882.027 292.224C882.027 306.836 917.116 295.826 917.116 316.611C917.116 325.975 908.884 332.046 894.787 332.046ZM1032.74 332.149C1011.14 332.149 995.083 316.611 995.083 295.517C995.083 274.422 1011.14 258.885 1032.85 258.885C1043.34 258.885 1052.81 262.383 1059.19 269.38L1054.35 274.217C1048.49 268.249 1041.28 265.676 1033.05 265.676C1015.66 265.676 1002.59 278.436 1002.59 295.517C1002.59 312.598 1015.66 325.358 1033.05 325.358C1041.28 325.358 1048.49 322.785 1054.35 316.714L1059.19 321.55C1052.81 328.548 1043.34 332.149 1032.74 332.149ZM1098.73 332.046C1082.89 332.046 1071.16 320.521 1071.16 304.469C1071.16 288.417 1082.89 276.995 1098.73 276.995C1114.58 276.995 1126.21 288.417 1126.21 304.469C1126.21 320.521 1114.58 332.046 1098.73 332.046ZM1098.73 325.564C1110.26 325.564 1118.8 317.126 1118.8 304.469C1118.8 291.813 1110.26 283.375 1098.73 283.375C1087.21 283.375 1078.57 291.813 1078.57 304.469C1078.57 317.126 1087.21 325.564 1098.73 325.564ZM1173.85 276.995C1187.02 276.995 1196.07 284.61 1196.07 300.147V331.532H1188.77V300.868C1188.77 289.446 1182.8 283.581 1172.51 283.581C1160.88 283.581 1153.58 290.784 1153.58 303.131V331.532H1146.27V277.407H1153.27V287.388C1157.18 280.802 1164.48 276.995 1173.85 276.995ZM1246.98 322.991L1249.56 328.239C1246.67 330.811 1242.35 332.046 1238.13 332.046C1227.95 332.046 1222.29 326.284 1222.29 316.303V283.581H1212.61V277.407H1222.29V265.573H1229.59V277.407H1246.06V283.581H1229.59V315.891C1229.59 322.271 1232.89 325.769 1238.96 325.769C1241.94 325.769 1244.93 324.843 1246.98 322.991ZM1275 288.005C1278.39 280.802 1285.29 276.995 1295.27 276.995V284.095C1294.65 284.095 1294.03 283.992 1293.52 283.992C1282.2 283.992 1275.31 291.195 1275.31 303.955V331.532H1268V277.407H1275V288.005ZM1335.26 332.046C1319.42 332.046 1307.69 320.521 1307.69 304.469C1307.69 288.417 1319.42 276.995 1335.26 276.995C1351.11 276.995 1362.74 288.417 1362.74 304.469C1362.74 320.521 1351.11 332.046 1335.26 332.046ZM1335.26 325.564C1346.79 325.564 1355.33 317.126 1355.33 304.469C1355.33 291.813 1346.79 283.375 1335.26 283.375C1323.74 283.375 1315.09 291.813 1315.09 304.469C1315.09 317.126 1323.74 325.564 1335.26 325.564ZM1382.8 331.532V255.18H1390.1V331.532H1382.8Z" fill="#707EAE"/>
<defs>
<filter id="filter0_i_1196_9344" x="-27" y="-27" width="405" height="405" filterUnits="userSpaceOnUse" color-interpolation-filters="sRGB">
<feFlood flood-opacity="0" result="BackgroundImageFix"/>
<feBlend mode="normal" in="SourceGraphic" in2="BackgroundImageFix" result="shape"/>
<feColorMatrix in="SourceAlpha" type="matrix" values="0 0 0 0 0 0 0 0 0 0 0 0 0 0 0 0 0 0 127 0" result="hardAlpha"/>
<feOffset dx="-27" dy="-27"/>
<feGaussianBlur stdDeviation="22.5"/>
<feComposite in2="hardAlpha" operator="arithmetic" k2="-1" k3="1"/>
<feColorMatrix type="matrix" values="0 0 0 0 0 0 0 0 0 0 0 0 0 0 0 0 0 0 0.3 0"/>
<feBlend mode="normal" in2="shape" result="effect1_innerShadow_1196_9344"/>
</filter>
<filter id="filter1_f_1196_9344" x="13.5" y="22.5" width="86.171" height="292.5" filterUnits="userSpaceOnUse" color-interpolation-filters="sRGB">
<feFlood flood-opacity="0" result="BackgroundImageFix"/>
<feBlend mode="normal" in="SourceGraphic" in2="BackgroundImageFix" result="shape"/>
<feGaussianBlur stdDeviation="9" result="effect1_foregroundBlur_1196_9344"/>
</filter>
<filter id="filter2_f_1196_9344" x="79.875" y="21.375" width="254.25" height="38.25" filterUnits="userSpaceOnUse" color-interpolation-filters="sRGB">
<feFlood flood-opacity="0" result="BackgroundImageFix"/>
<feBlend mode="normal" in="SourceGraphic" in2="BackgroundImageFix" result="shape"/>
<feGaussianBlur stdDeviation="9" result="effect1_foregroundBlur_1196_9344"/>
</filter>
<clipPath id="clip0_1196_9344">
<rect width="204" height="240" fill="white" transform="translate(90 69)"/>
</clipPath>
</defs>
</svg>
