<svg width="24" height="22" viewBox="0 0 24 22" fill="none" xmlns="http://www.w3.org/2000/svg">
<g id="Group">
<path id="Vector" d="M21.7465 13.2107L21.7941 13.2324C22.9016 13.7973 23.3303 15.0684 22.7468 16.0896C20.7223 19.6205 16.6496 22.0323 11.9696 21.9997C5.44374 21.9562 0.0968276 17.1109 0.00155965 11.1574C-0.105617 5.00832 5.32466 0 12.053 0C15.8518 0 19.2457 1.60788 21.4488 4.11747L17.1379 6.24682C15.7565 5.01919 13.8392 4.28043 11.7433 4.35648C7.89689 4.49771 4.80068 7.39841 4.75305 10.9184C4.70542 14.6339 7.99216 17.6541 12.041 17.6541C14.8515 17.6541 17.2927 16.2091 18.5074 14.0798C19.1266 13.0151 20.5913 12.624 21.7465 13.2107Z" fill="#006884"/>
<path id="Vector_2" d="M22.7826 5.98617C23.3185 6.9422 22.9374 8.11552 21.9014 8.63699L19.2577 9.97327L12.708 13.2868C11.6839 13.8083 10.3978 13.5475 9.70708 12.6784L9.68326 12.6458C8.86158 11.6137 9.21883 10.1471 10.4573 9.53871L17.1499 6.23604L21.4608 4.10669C21.9609 4.69335 22.4015 5.32346 22.7826 5.98617Z" fill="#97BCC7"/>
</g>
</svg>
