<svg width="1024" height="1024" viewBox="0 0 1024 1024" fill="none" xmlns="http://www.w3.org/2000/svg">
<g filter="url(#filter0_i_1203_3528)">
<rect width="1024" height="1024" rx="195.048" fill="#006884"/>
</g>
<g filter="url(#filter1_f_1203_3528)">
<path d="M96.2703 144.97C101.734 103.907 181.458 108.224 215.93 112.053C221.476 112.669 223.155 119.906 218.694 123.258C201.23 136.38 171.418 161.915 163.945 188.122C127.296 316.647 134.993 534.04 141.314 636.693C143.617 674.101 137.51 711.597 122.313 745.857L96.2703 804.571C96.2703 804.571 71.6621 329.905 96.2703 144.97Z" fill="white" fill-opacity="0.2"/>
</g>
<g filter="url(#filter2_f_1203_3528)">
<path d="M268.19 109.714L853.333 109.714" stroke="white" stroke-opacity="0.8" stroke-width="6.09524" stroke-linecap="round"/>
</g>
<g clip-path="url(#clip0_1203_3528)">
<path d="M621.157 604.9C706 575.205 761.917 503.204 761.917 411.677C761.917 289.642 662.713 202.692 528.268 202.692H485.693V324.727H514.212C580.111 324.727 625.231 358.999 625.231 412.084C625.231 465.17 580.111 499.441 514.212 499.441H382.211V323.913C382.211 291.548 369.334 260.507 346.413 237.621C323.492 214.735 292.404 201.878 259.988 201.878H249.192V820.7C284.309 820.7 317.987 806.771 342.819 781.978C367.65 757.185 381.6 723.558 381.6 688.495V620.053H479.888L621.463 820.903H773.019L621.157 604.9Z" fill="#FEFEFE"/>
<mask id="mask0_1203_3528" style="mask-type:luminance" maskUnits="userSpaceOnUse" x="250" y="201" width="524" height="620">
<path d="M621.965 604.9C706.808 575.205 762.725 503.204 762.725 411.677C762.725 289.642 663.521 202.692 529.076 202.692H486.501V324.727H515.02C580.919 324.727 626.039 358.999 626.039 412.084C626.039 465.17 580.919 499.441 515.02 499.441H383.019V323.913C383.019 291.548 370.142 260.507 347.221 237.621C324.3 214.735 293.212 201.878 260.796 201.878H250V820.7C285.117 820.7 318.795 806.771 343.627 781.978C368.458 757.185 382.408 723.558 382.408 688.495V620.053H480.696L622.27 820.903H773.827L621.965 604.9Z" fill="white"/>
</mask>
<g mask="url(#mask0_1203_3528)">
<path d="M102.721 698.461C110.666 695.817 168.416 508.797 383.019 498.628C468.575 494.56 535.187 506.255 580.206 484.187C688.984 431.101 753.355 300.422 764.457 180.217L820.374 852.327H123.907L102.721 698.461Z" fill="#FEFEFE"/>
</g>
</g>
<defs>
<filter id="filter0_i_1203_3528" x="-73.1429" y="-73.1429" width="1097.14" height="1097.14" filterUnits="userSpaceOnUse" color-interpolation-filters="sRGB">
<feFlood flood-opacity="0" result="BackgroundImageFix"/>
<feBlend mode="normal" in="SourceGraphic" in2="BackgroundImageFix" result="shape"/>
<feColorMatrix in="SourceAlpha" type="matrix" values="0 0 0 0 0 0 0 0 0 0 0 0 0 0 0 0 0 0 127 0" result="hardAlpha"/>
<feOffset dx="-73.1429" dy="-73.1429"/>
<feGaussianBlur stdDeviation="60.9524"/>
<feComposite in2="hardAlpha" operator="arithmetic" k2="-1" k3="1"/>
<feColorMatrix type="matrix" values="0 0 0 0 0 0 0 0 0 0 0 0 0 0 0 0 0 0 0.3 0"/>
<feBlend mode="normal" in2="shape" result="effect1_innerShadow_1203_3528"/>
</filter>
<filter id="filter1_f_1203_3528" x="36.5714" y="60.952" width="233.437" height="792.381" filterUnits="userSpaceOnUse" color-interpolation-filters="sRGB">
<feFlood flood-opacity="0" result="BackgroundImageFix"/>
<feBlend mode="normal" in="SourceGraphic" in2="BackgroundImageFix" result="shape"/>
<feGaussianBlur stdDeviation="24.381" result="effect1_foregroundBlur_1203_3528"/>
</filter>
<filter id="filter2_f_1203_3528" x="216.381" y="57.9041" width="688.762" height="103.62" filterUnits="userSpaceOnUse" color-interpolation-filters="sRGB">
<feFlood flood-opacity="0" result="BackgroundImageFix"/>
<feBlend mode="normal" in="SourceGraphic" in2="BackgroundImageFix" result="shape"/>
<feGaussianBlur stdDeviation="24.381" result="effect1_foregroundBlur_1203_3528"/>
</filter>
<clipPath id="clip0_1203_3528">
<rect width="524" height="618" fill="white" transform="translate(250 203)"/>
</clipPath>
</defs>
</svg>
